<svg xmlns="http://www.w3.org/2000/svg" width="48" height="48" viewBox="0 0 48 48">
  <g id="illustrator" transform="translate(2305 -283.797)">
    <path id="Path_68" data-name="Path 68" d="M48,48H0V0H48Z" transform="translate(-2305 283.797)" fill="#fec478"/>
    <path id="Path_70" data-name="Path 70" d="M72.375,72.375H30V30H72.375Z" transform="translate(-2332.188 256.609)" fill="#994c0f"/>
    <path id="Path_72" data-name="Path 72" d="M148.56,181.6H151.3l6.075,15.975h-3.2l-1.485-3.983h-5.58l-1.462,3.983h-3.2Zm3.577,9.81-2.205-6.277-2.295,6.277Z" transform="translate(-2434.106 119.222)" fill="#fec478"/>
    <g id="Group_81" data-name="Group 81" transform="translate(-2281 300.372)">
      <path id="Path_73" data-name="Path 73" d="M317.182,179.793V176.8H320.2v2.992Zm0,13.432v-11.79H320.2v11.79Z" transform="translate(-311.446 -176.8)" fill="#fec478"/>
      <path id="Path_74" data-name="Path 74" d="M256,232.137v8.345l1.078,2.892h3.2Z" transform="translate(-256 -226.949)" fill="#fec478"/>
    </g>
  </g>
</svg>
