<svg xmlns="http://www.w3.org/2000/svg" width="48" height="50.286" viewBox="0 0 48 50.286">
  <g id="icons8-angularjs" transform="translate(-3 -2)">
    <path id="Path_36" data-name="Path 36" d="M26.923,2,3,10.326l3.781,31L26.949,52.286,47.221,41.175l3.779-31Z" transform="translate(0)" fill="#bdbdbd"/>
    <path id="Path_37" data-name="Path 37" d="M45.506,11.44,24,4.135V49.346l18.094-9.918Z" transform="translate(3 0.305)" fill="#b71c1c"/>
    <path id="Path_38" data-name="Path 38" d="M26.621,4.115,5.181,11.577l3.414,28,18.038,9.8.056-.03V4.138Z" transform="translate(0.312 0.302)" fill="#dd2c00"/>
    <path id="Path_39" data-name="Path 39" d="M24,6V16.862L33.8,38h5.039Z" transform="translate(3 0.571)" fill="#bdbdbd"/>
    <path id="Path_40" data-name="Path 40" d="M11.013,38h5.039l9.8-21.138V6Z" transform="translate(1.145 0.571)" fill="#eee"/>
    <path id="Path_41" data-name="Path 41" d="M24,24h6.857v4.571H24Z" transform="translate(3 3.143)" fill="#bdbdbd"/>
    <path id="Path_42" data-name="Path 42" d="M18,24h6.857v4.571H18Z" transform="translate(2.143 3.143)" fill="#eee"/>
  </g>
</svg>
