<svg xmlns="http://www.w3.org/2000/svg" width="48" height="53.647" viewBox="0 0 48 53.647">
  <g id="icons8-css3" transform="translate(-7 -5)">
    <path id="Path_43" data-name="Path 43" d="M55,5H7l4.235,48L31,58.647,50.765,53,55,5Z" fill="#0277bd"/>
    <path id="Path_44" data-name="Path 44" d="M24,8V53.035l15.812-4.518L43.341,8Z" transform="translate(7 1.235)" fill="#039be5"/>
    <path id="Path_45" data-name="Path 45" d="M36.847,13H24v5.647h6.918l-.424,5.647H24v5.647h6.212l-.424,6.353L24,38.271V44.2l11.153-3.671.988-16.235h0Z" transform="translate(7 3.294)" fill="#fff"/>
    <path id="Path_46" data-name="Path 46" d="M27.788,13v5.647H15.224L14.8,13ZM21.294,24.294l.282,5.647h6.212V24.294Zm.565,8.471H16.212l.424,7.765L27.788,44.2V38.271L22,36.294Z" transform="translate(3.212 3.294)" fill="#eee"/>
  </g>
</svg>
