<svg xmlns="http://www.w3.org/2000/svg" width="48" height="48" viewBox="0 0 48 48">
  <path id="icons8-git" d="M51.989,26.6,31.4,6.011A3.451,3.451,0,0,0,29,5h0a3.451,3.451,0,0,0-2.4,1.011l-4.421,4.421,5.179,5.179A3.5,3.5,0,0,1,29,15.232a3.722,3.722,0,0,1,3.789,3.789,3.5,3.5,0,0,1-.379,1.642l5.053,5.053a3.5,3.5,0,0,1,1.642-.379,3.789,3.789,0,1,1-3.789,3.789,3.5,3.5,0,0,1,.379-1.642l-5.053-5.053c-.126,0-.253.126-.379.126V35.695a3.679,3.679,0,0,1,2.526,3.537,3.789,3.789,0,0,1-7.579,0,3.679,3.679,0,0,1,2.526-3.537V22.432a3.679,3.679,0,0,1-2.526-3.537,3.5,3.5,0,0,1,.379-1.642l-5.179-5.179L6.011,26.6a3.355,3.355,0,0,0,0,4.8L26.6,51.989h0a3.355,3.355,0,0,0,4.8,0L51.989,31.4a3.355,3.355,0,0,0,0-4.8Z" transform="translate(-5 -5)" fill="#f4511e"/>
</svg>
