<svg xmlns="http://www.w3.org/2000/svg" width="48" height="53.647" viewBox="0 0 48 53.647">
  <g id="icons8-html-5" transform="translate(-7 -5)">
    <path id="Path_47" data-name="Path 47" d="M55,5H7l4.235,48L31,58.647,50.765,53,55,5Z" fill="#e65100"/>
    <path id="Path_48" data-name="Path 48" d="M24,8V53.035l15.812-4.518L43.341,8Z" transform="translate(7 1.235)" fill="#ff6d00"/>
    <path id="Path_49" data-name="Path 49" d="M24,29.941V24.294H36.141l-.988,16.235L24,44.2V38.271l5.788-1.976.424-6.353ZM36.565,18.647,36.988,13H24v5.647Z" transform="translate(7 3.294)" fill="#fff"/>
    <path id="Path_50" data-name="Path 50" d="M27.747,38.271V44.2L16.594,40.529l-.565-7.765h5.647l.282,3.529ZM20.829,18.647h6.918V13H14.9l.988,16.941H27.747V24.294H21.253Z" transform="translate(3.253 3.294)" fill="#eee"/>
  </g>
</svg>
