<svg xmlns="http://www.w3.org/2000/svg" width="48" height="48" viewBox="0 0 48 48">
  <g id="icons8-javascript" transform="translate(-6 -6)">
    <path id="Path_51" data-name="Path 51" d="M6,54V6H54V54Z" fill="#ffd600"/>
    <path id="Path_52" data-name="Path 52" d="M34.273,36.6c.923,1.5,1.925,2.935,4.049,2.935,1.784,0,2.72-.887,2.72-2.113,0-1.468-.968-1.989-2.931-2.844l-1.076-.459c-3.105-1.317-5.171-2.968-5.171-6.455,0-3.213,2.46-5.659,6.3-5.659a6.369,6.369,0,0,1,6.123,3.431L40.94,27.575a2.928,2.928,0,0,0-2.771-1.836,1.869,1.869,0,0,0-2.06,1.836c0,1.285.8,1.805,2.647,2.6l1.076.459c3.66,1.559,5.724,3.151,5.724,6.729,0,3.856-3.045,5.969-7.133,5.969a7.867,7.867,0,0,1-7.533-4.491Zm-15.448.109A3.641,3.641,0,0,0,22,38.843c1.411,0,2.223-.557,2.223-2.724V22h4.444V36.8c0,4.489-2.6,6.532-6.407,6.532a7.8,7.8,0,0,1-6.927-4.491Z" transform="translate(3.111 5.333)" fill="#000001"/>
  </g>
</svg>
