<svg xmlns="http://www.w3.org/2000/svg" width="47" height="52.222" viewBox="0 0 47 52.222">
  <g id="icons8-mongodb" transform="translate(-6 -4)">
    <path id="Path_53" data-name="Path 53" d="M53,21.364c0,26.764-23.5,34.858-23.5,34.858S6,48.128,6,21.364a68.747,68.747,0,0,1,.522-8.225,7.667,7.667,0,0,1,5.744-6.658A64.556,64.556,0,0,1,29.5,4,66.5,66.5,0,0,1,46.864,6.481a7.816,7.816,0,0,1,5.744,6.658C52.739,15.358,53,18.231,53,21.364Z" fill="#5d4037"/>
    <path id="Path_54" data-name="Path 54" d="M29.5,7.917a64.863,64.863,0,0,1,16.319,2.35,3.925,3.925,0,0,1,2.872,3.394,74.193,74.193,0,0,1,.392,7.7A32.493,32.493,0,0,1,29.5,51.914C24.931,49.825,9.917,41.6,9.917,21.364a74.193,74.193,0,0,1,.392-7.7,3.761,3.761,0,0,1,2.872-3.394A64.863,64.863,0,0,1,29.5,7.917M29.5,4A66.5,66.5,0,0,0,12.136,6.481a7.679,7.679,0,0,0-5.614,6.658A70.676,70.676,0,0,0,6,21.364C6,48.128,29.5,56.222,29.5,56.222S53,48.128,53,21.364a68.747,68.747,0,0,0-.522-8.225,7.667,7.667,0,0,0-5.744-6.658A64.555,64.555,0,0,0,29.5,4Z" fill="#4caf50"/>
    <path id="Path_55" data-name="Path 55" d="M23,28h2.611V38.444H23Z" transform="translate(5.194 7.333)" fill="#dcedc8"/>
    <path id="Path_56" data-name="Path 56" d="M25.833,10S18,16.528,18,26.972c0,6.789,4.308,11.1,6.528,13.056l1.306-3.917,1.306,3.917c2.219-1.958,6.528-6.267,6.528-13.056C33.667,16.528,25.833,10,25.833,10Z" transform="translate(3.667 1.833)" fill="#4caf50"/>
    <path id="Path_57" data-name="Path 57" d="M25.833,10S18,16.528,18,26.972c0,6.789,4.308,11.1,6.528,13.056l1.306-3.917Z" transform="translate(3.667 1.833)" fill="#81c784"/>
  </g>
</svg>
