<svg xmlns="http://www.w3.org/2000/svg" width="48" height="19.047" viewBox="0 0 48 19.047">
  <g id="icons8-nodejs" transform="translate(0 -12)">
    <path id="Path_58" data-name="Path 58" d="M17.2,19.122,12.3,21.837a.563.563,0,0,0-.3.492v5.433a.564.564,0,0,0,.3.492L17.2,30.971a.618.618,0,0,0,.593,0L22.7,28.254a.566.566,0,0,0,.3-.492V22.329a.564.564,0,0,0-.3-.492L17.8,19.122a.618.618,0,0,0-.594,0m25.248,4.891-.818.452a.093.093,0,0,0-.049.082v.906a.1.1,0,0,0,.049.082l.818.453a.1.1,0,0,0,.1,0l.818-.453a.1.1,0,0,0,.049-.082v-.906a.094.094,0,0,0-.05-.082l-.818-.452a.1.1,0,0,0-.1,0" fill="#388e3c"/>
    <path id="Path_59" data-name="Path 59" d="M35.751,13.364l-2.389-1.333a.243.243,0,0,0-.361.212V20.3l-2.2-1.219a.618.618,0,0,0-.594,0h0L25.3,21.791a.563.563,0,0,0-.3.491v5.433a.564.564,0,0,0,.3.492l4.908,2.717a.618.618,0,0,0,.593,0l4.907-2.717A.565.565,0,0,0,36,27.715V13.788A.487.487,0,0,0,35.751,13.364ZM32.866,26.458l-2.23,1.235a.279.279,0,0,1-.269,0l-2.231-1.235A.255.255,0,0,1,28,26.234v-2.47a.257.257,0,0,1,.135-.224l2.231-1.234h0a.279.279,0,0,1,.135-.034.291.291,0,0,1,.135.034l2.23,1.234a.259.259,0,0,1,.135.225v2.47A.257.257,0,0,1,32.866,26.458Z" fill="#37474f"/>
    <path id="Path_60" data-name="Path 60" d="M17.2,19.122,12,27.762a.564.564,0,0,0,.3.492L17.2,30.971a.618.618,0,0,0,.593,0L23,22.329a.564.564,0,0,0-.3-.492L17.8,19.122a.618.618,0,0,0-.594,0" fill="#2e7d32"/>
    <path id="Path_61" data-name="Path 61" d="M17.2,19.122,12.3,21.837a.563.563,0,0,0-.3.492l5.2,8.642a.618.618,0,0,0,.593,0L22.7,28.254a.565.565,0,0,0,.3-.492l-5.2-8.64a.618.618,0,0,0-.594,0" fill="#4caf50"/>
    <path id="Path_62" data-name="Path 62" d="M47.7,21.791,42.8,19.076a.618.618,0,0,0-.594,0h0L37.3,21.791a.574.574,0,0,0-.3.5V27.7a.575.575,0,0,0,.3.5l4.908,2.717a.613.613,0,0,0,.593,0l2.263-1.253a.3.3,0,0,0,0-.526l-4.924-2.687A.263.263,0,0,1,40,26.231V23.765a.252.252,0,0,1,.13-.221l2.235-1.236h0a.279.279,0,0,1,.135-.034.291.291,0,0,1,.135.034l2.235,1.237a.252.252,0,0,1,.13.221v2.012a.241.241,0,0,0,.121.209.246.246,0,0,0,.242,0l2.4-1.393a.483.483,0,0,0,.24-.417V22.3A.576.576,0,0,0,47.7,21.791Zm-37,0L5.8,19.076a.618.618,0,0,0-.594,0h0L.3,21.791a.574.574,0,0,0-.3.5v7.465a.241.241,0,0,0,.121.209.246.246,0,0,0,.242,0l2.4-1.393A.482.482,0,0,0,3,28.157V23.764a.252.252,0,0,1,.13-.221l2.235-1.236h0a.279.279,0,0,1,.135-.034.291.291,0,0,1,.135.034L7.87,23.544a.252.252,0,0,1,.13.221v4.393a.481.481,0,0,0,.24.417l2.4,1.393A.24.24,0,0,0,11,29.759V22.3A.575.575,0,0,0,10.7,21.791Z" fill="#37474f"/>
  </g>
</svg>
