<svg id="photoshop" xmlns="http://www.w3.org/2000/svg" width="47.566" height="47.566" viewBox="0 0 47.566 47.566">
  <path id="Path_75" data-name="Path 75" d="M47.566,47.566H0V0H47.566Z" fill="#ccefff"/>
  <path id="Path_77" data-name="Path 77" d="M71.992,71.992H30V30H71.992Z" transform="translate(-27.213 -27.213)" fill="#0c61c6"/>
  <path id="Path_79" data-name="Path 79" d="M140.862,197.431V181.6h6.711a5.259,5.259,0,0,1,5.039,5.262,5.109,5.109,0,0,1-4.928,5.262h-3.746v5.307Zm3.077-8h3.567c1.079,0,1.984-1.007,1.984-2.564a2.329,2.329,0,0,0-2.118-2.564h-3.434Z" transform="translate(-127.775 -164.729)" fill="#ccefff"/>
  <g id="Group_82" data-name="Group 82" transform="translate(23.783 18.986)">
    <path id="Path_80" data-name="Path 80" d="M283.183,235.969a8.415,8.415,0,0,1-5.284-1.806l1.115-1.873a7.674,7.674,0,0,0,4.1,1.538c1.133,0,1.918-.475,1.918-1.293,0-1-1.658-1.33-2.564-1.583-.758-.208-4.169-.687-4.169-3.255,0-2.472,2.151-3.857,4.593-3.857a6.508,6.508,0,0,1,4.571,1.605l-1.2,1.806a6.047,6.047,0,0,0-3.389-1.293c-1.084,0-1.784.463-1.784,1.316,0,1.064,1.865,1.368,2.3,1.472.8.208,4.526.777,4.526,3.523C287.91,235.514,284.64,235.969,283.183,235.969Z" transform="translate(-275.865 -222.03)" fill="#ccefff"/>
    <path id="Path_81" data-name="Path 81" d="M256,204.362v6.393a5.374,5.374,0,0,0,0-6.393Z" transform="translate(-256 -204.362)" fill="#ccefff"/>
  </g>
</svg>
