<svg xmlns="http://www.w3.org/2000/svg" width="48" height="42.938" viewBox="0 0 48 42.938">
  <g id="icons8-react-native" transform="translate(-1 -3.451)">
    <path id="Path_63" data-name="Path 63" d="M25,34.87c-13.461,0-24-4.591-24-10.435S11.539,14,25,14s24,4.591,24,10.435S38.461,34.87,25,34.87Zm0-18.783c-13.148,0-21.913,4.278-21.913,8.348S11.852,32.783,25,32.783,46.913,28.5,46.913,24.435,38.148,16.087,25,16.087Z" transform="translate(0 0.459)" fill="#80deea"/>
    <path id="Path_64" data-name="Path 64" d="M15.342,46.389a4.819,4.819,0,0,1-2.713-.73c-5.113-2.922-3.757-14.3,2.922-25.983h0A45.487,45.487,0,0,1,26.3,6.737c4.07-3.13,7.722-4.07,10.226-2.609,2.609,1.461,3.548,5.113,2.922,10.226A44.857,44.857,0,0,1,33.6,30.215,45.487,45.487,0,0,1,22.855,43.154C20.142,45.241,17.534,46.389,15.342,46.389Zm18.574-40.9c-1.67,0-3.861.939-6.261,2.817A44.868,44.868,0,0,0,17.429,20.719h0c-6.574,11.374-7.2,21.183-3.757,23.165,1.774,1.043,4.7.1,7.93-2.4A44.868,44.868,0,0,0,31.829,29.067a43.28,43.28,0,0,0,5.635-15.026c.522-4.174-.1-7.1-1.878-8.139A4.375,4.375,0,0,0,33.916,5.485Z" transform="translate(0.371 0)" fill="#80deea"/>
    <path id="Path_65" data-name="Path 65" d="M34.02,46.389c-5.217,0-12.73-6.365-18.365-16.278C8.873,18.424,7.516,7.05,12.629,4.128h0c5.113-2.922,14.3,3.861,21.078,15.548a44.857,44.857,0,0,1,5.843,15.861c.73,5.113-.313,8.661-2.922,10.226A5.657,5.657,0,0,1,34.02,46.389ZM13.673,5.9c-3.443,1.983-2.817,11.791,3.757,23.165s14.713,16.8,18.157,14.817c1.774-1.043,2.4-3.965,1.878-8.139A43.28,43.28,0,0,0,31.829,20.72C25.255,9.346,17.116,3.92,13.673,5.9Z" transform="translate(0.371)" fill="#80deea"/>
    <circle id="Ellipse_16" data-name="Ellipse 16" cx="4.174" cy="4.174" r="4.174" transform="translate(20.826 20.72)" fill="#80deea"/>
  </g>
</svg>
