<svg xmlns="http://www.w3.org/2000/svg" width="48" height="48" viewBox="0 0 48 48">
  <g id="Group_85" data-name="Group 85" transform="translate(-91 -45)">
    <g id="Group_84" data-name="Group 84" transform="translate(91 45)">
      <g id="experience">
        <path id="Path_28" data-name="Path 28" d="M48,48H0V0H48Z" fill="#ff80e4"/>
        <path id="Path_30" data-name="Path 30" d="M72.342,72.342H30V30H72.342Z" transform="translate(-27.171 -27.171)" fill="#7f1363"/>
        <path id="Path_32" data-name="Path 32" d="M113.856,181.6l4.006,5.975,3.983-5.975h3.372l-5.726,8.148,5.545,7.921h-3.372l-3.8-5.749-3.825,5.749h-3.395l5.545-7.921-5.726-8.148Z" transform="translate(-100.132 -164.625)" fill="#ff80e4"/>
        <g id="Group_80" data-name="Group 80" transform="translate(23.943 16.523)">
          <path id="Path_33" data-name="Path 33" d="M271.616,193.548c-3.482,0-5.636-2.9-5.636-6.156,0-3.689,2.484-6.133,5.3-6.133a4.594,4.594,0,0,1,4.006,2.286V176.8h3.033v13.036c0,.317.445.89.7.905v2.58a6.9,6.9,0,0,1-1.29.158,1.956,1.956,0,0,1-1.992-2.218A4.74,4.74,0,0,1,271.616,193.548Zm.792-2.58a3.253,3.253,0,0,0,2.874-1.992v-2.829c-.121-.332-1.207-2.308-3.055-2.308-2.065,0-3.1,2.049-3.1,3.621A3.4,3.4,0,0,0,272.408,190.968Z" transform="translate(-265.039 -176.8)" fill="#ff80e4"/>
          <path id="Path_34" data-name="Path 34" d="M256,181.6v1.468l1.032-1.468Z" transform="translate(-256 -181.147)" fill="#ff80e4"/>
          <path id="Path_35" data-name="Path 35" d="M256,340.327h.851L256,339.112Z" transform="translate(-256 -323.806)" fill="#ff80e4"/>
        </g>
      </g>
    </g>
  </g>
</svg>
